<svg id="visual" viewBox="0 0 960 540" width="960" height="540" xmlns="http://www.w3.org/2000/svg" xmlns:xlink="http://www.w3.org/1999/xlink" version="1.1"><path d="M0 470L8.5 462.5C17 455 34 440 50.8 431.8C67.7 423.7 84.3 422.3 101.2 431C118 439.7 135 458.3 151.8 463.5C168.7 468.7 185.3 460.3 202.2 457C219 453.7 236 455.3 252.8 447.3C269.7 439.3 286.3 421.7 303.2 426.8C320 432 337 460 353.8 465.2C370.7 470.3 387.3 452.7 404.2 437.8C421 423 438 411 454.8 413.2C471.7 415.3 488.3 431.7 505.2 435.3C522 439 539 430 555.8 425.7C572.7 421.3 589.3 421.7 606.2 428.5C623 435.3 640 448.7 656.8 450.8C673.7 453 690.3 444 707.2 444.3C724 444.7 741 454.3 757.8 460C774.7 465.7 791.3 467.3 808.2 456.3C825 445.3 842 421.7 858.8 423.7C875.7 425.7 892.3 453.3 909.2 461.5C926 469.7 943 458.3 951.5 452.7L960 447L960 541L951.5 541C943 541 926 541 909.2 541C892.3 541 875.7 541 858.8 541C842 541 825 541 808.2 541C791.3 541 774.7 541 757.8 541C741 541 724 541 707.2 541C690.3 541 673.7 541 656.8 541C640 541 623 541 606.2 541C589.3 541 572.7 541 555.8 541C539 541 522 541 505.2 541C488.3 541 471.7 541 454.8 541C438 541 421 541 404.2 541C387.3 541 370.7 541 353.8 541C337 541 320 541 303.2 541C286.3 541 269.7 541 252.8 541C236 541 219 541 202.2 541C185.3 541 168.7 541 151.8 541C135 541 118 541 101.2 541C84.3 541 67.7 541 50.8 541C34 541 17 541 8.5 541L0 541Z" fill="#480ca8"></path><path d="M0 468L8.5 464.5C17 461 34 454 50.8 454.8C67.7 455.7 84.3 464.3 101.2 471.2C118 478 135 483 151.8 481.7C168.7 480.3 185.3 472.7 202.2 464.8C219 457 236 449 252.8 450.5C269.7 452 286.3 463 303.2 467.2C320 471.3 337 468.7 353.8 459.2C370.7 449.7 387.3 433.3 404.2 429.5C421 425.7 438 434.3 454.8 435.5C471.7 436.7 488.3 430.3 505.2 435.7C522 441 539 458 555.8 466.2C572.7 474.3 589.3 473.7 606.2 473.8C623 474 640 475 656.8 477.2C673.7 479.3 690.3 482.7 707.2 483.5C724 484.3 741 482.7 757.8 479.2C774.7 475.7 791.3 470.3 808.2 470.8C825 471.3 842 477.7 858.8 469.7C875.7 461.7 892.3 439.3 909.2 435C926 430.7 943 444.3 951.5 451.2L960 458L960 541L951.5 541C943 541 926 541 909.2 541C892.3 541 875.7 541 858.8 541C842 541 825 541 808.2 541C791.3 541 774.7 541 757.8 541C741 541 724 541 707.2 541C690.3 541 673.7 541 656.8 541C640 541 623 541 606.2 541C589.3 541 572.7 541 555.8 541C539 541 522 541 505.2 541C488.3 541 471.7 541 454.8 541C438 541 421 541 404.2 541C387.3 541 370.7 541 353.8 541C337 541 320 541 303.2 541C286.3 541 269.7 541 252.8 541C236 541 219 541 202.2 541C185.3 541 168.7 541 151.8 541C135 541 118 541 101.2 541C84.3 541 67.7 541 50.8 541C34 541 17 541 8.5 541L0 541Z" fill="#6d00a5"></path><path d="M0 491L8.5 485.8C17 480.7 34 470.3 50.8 466.5C67.7 462.7 84.3 465.3 101.2 460.3C118 455.3 135 442.7 151.8 437.7C168.7 432.7 185.3 435.3 202.2 440.5C219 445.7 236 453.3 252.8 461C269.7 468.7 286.3 476.3 303.2 480C320 483.7 337 483.3 353.8 485.3C370.7 487.3 387.3 491.7 404.2 483.7C421 475.7 438 455.3 454.8 454.7C471.7 454 488.3 473 505.2 476.5C522 480 539 468 555.8 460.3C572.7 452.7 589.3 449.3 606.2 450.8C623 452.3 640 458.7 656.8 464C673.7 469.3 690.3 473.7 707.2 476.5C724 479.3 741 480.7 757.8 482.3C774.7 484 791.3 486 808.2 480.7C825 475.3 842 462.7 858.8 457.7C875.7 452.7 892.3 455.3 909.2 462.7C926 470 943 482 951.5 488L960 494L960 541L951.5 541C943 541 926 541 909.2 541C892.3 541 875.7 541 858.8 541C842 541 825 541 808.2 541C791.3 541 774.7 541 757.8 541C741 541 724 541 707.2 541C690.3 541 673.7 541 656.8 541C640 541 623 541 606.2 541C589.3 541 572.7 541 555.8 541C539 541 522 541 505.2 541C488.3 541 471.7 541 454.8 541C438 541 421 541 404.2 541C387.3 541 370.7 541 353.8 541C337 541 320 541 303.2 541C286.3 541 269.7 541 252.8 541C236 541 219 541 202.2 541C185.3 541 168.7 541 151.8 541C135 541 118 541 101.2 541C84.3 541 67.7 541 50.8 541C34 541 17 541 8.5 541L0 541Z" fill="#8900a2"></path><path d="M0 474L8.5 478.8C17 483.7 34 493.3 50.8 494C67.7 494.7 84.3 486.3 101.2 480.5C118 474.7 135 471.3 151.8 474.7C168.7 478 185.3 488 202.2 494.3C219 500.7 236 503.3 252.8 503.8C269.7 504.3 286.3 502.7 303.2 493.2C320 483.7 337 466.3 353.8 459.3C370.7 452.3 387.3 455.7 404.2 456.2C421 456.7 438 454.3 454.8 458.2C471.7 462 488.3 472 505.2 470.5C522 469 539 456 555.8 460.2C572.7 464.3 589.3 485.7 606.2 496C623 506.3 640 505.7 656.8 505.8C673.7 506 690.3 507 707.2 496.3C724 485.7 741 463.3 757.8 458.8C774.7 454.3 791.3 467.7 808.2 472.3C825 477 842 473 858.8 471C875.7 469 892.3 469 909.2 473.5C926 478 943 487 951.5 491.5L960 496L960 541L951.5 541C943 541 926 541 909.2 541C892.3 541 875.7 541 858.8 541C842 541 825 541 808.2 541C791.3 541 774.7 541 757.8 541C741 541 724 541 707.2 541C690.3 541 673.7 541 656.8 541C640 541 623 541 606.2 541C589.3 541 572.7 541 555.8 541C539 541 522 541 505.2 541C488.3 541 471.7 541 454.8 541C438 541 421 541 404.2 541C387.3 541 370.7 541 353.8 541C337 541 320 541 303.2 541C286.3 541 269.7 541 252.8 541C236 541 219 541 202.2 541C185.3 541 168.7 541 151.8 541C135 541 118 541 101.2 541C84.3 541 67.7 541 50.8 541C34 541 17 541 8.5 541L0 541Z" fill="#a0009e"></path><path d="M0 484L8.5 482C17 480 34 476 50.8 476.5C67.7 477 84.3 482 101.2 486.3C118 490.7 135 494.3 151.8 492.8C168.7 491.3 185.3 484.7 202.2 484.2C219 483.7 236 489.3 252.8 489.2C269.7 489 286.3 483 303.2 485.8C320 488.7 337 500.3 353.8 498.3C370.7 496.3 387.3 480.7 404.2 475.5C421 470.3 438 475.7 454.8 483.7C471.7 491.7 488.3 502.3 505.2 504.8C522 507.3 539 501.7 555.8 496.2C572.7 490.7 589.3 485.3 606.2 486.2C623 487 640 494 656.8 498.8C673.7 503.7 690.3 506.3 707.2 503.3C724 500.3 741 491.7 757.8 486.2C774.7 480.7 791.3 478.3 808.2 476C825 473.7 842 471.3 858.8 474.3C875.7 477.3 892.3 485.7 909.2 491.5C926 497.3 943 500.7 951.5 502.3L960 504L960 541L951.5 541C943 541 926 541 909.2 541C892.3 541 875.7 541 858.8 541C842 541 825 541 808.2 541C791.3 541 774.7 541 757.8 541C741 541 724 541 707.2 541C690.3 541 673.7 541 656.8 541C640 541 623 541 606.2 541C589.3 541 572.7 541 555.8 541C539 541 522 541 505.2 541C488.3 541 471.7 541 454.8 541C438 541 421 541 404.2 541C387.3 541 370.7 541 353.8 541C337 541 320 541 303.2 541C286.3 541 269.7 541 252.8 541C236 541 219 541 202.2 541C185.3 541 168.7 541 151.8 541C135 541 118 541 101.2 541C84.3 541 67.7 541 50.8 541C34 541 17 541 8.5 541L0 541Z" fill="#b5009a"></path><path d="M0 482L8.5 480C17 478 34 474 50.8 474.8C67.7 475.7 84.3 481.3 101.2 489.2C118 497 135 507 151.8 505.8C168.7 504.7 185.3 492.3 202.2 485.3C219 478.3 236 476.7 252.8 476.2C269.7 475.7 286.3 476.3 303.2 479C320 481.7 337 486.3 353.8 491.2C370.7 496 387.3 501 404.2 504.8C421 508.7 438 511.3 454.8 508.8C471.7 506.3 488.3 498.7 505.2 497.2C522 495.7 539 500.3 555.8 502.7C572.7 505 589.3 505 606.2 505.5C623 506 640 507 656.8 505.2C673.7 503.3 690.3 498.7 707.2 494.8C724 491 741 488 757.8 487.7C774.7 487.3 791.3 489.7 808.2 488C825 486.3 842 480.7 858.8 482.8C875.7 485 892.3 495 909.2 499.2C926 503.3 943 501.7 951.5 500.8L960 500L960 541L951.5 541C943 541 926 541 909.2 541C892.3 541 875.7 541 858.8 541C842 541 825 541 808.2 541C791.3 541 774.7 541 757.8 541C741 541 724 541 707.2 541C690.3 541 673.7 541 656.8 541C640 541 623 541 606.2 541C589.3 541 572.7 541 555.8 541C539 541 522 541 505.2 541C488.3 541 471.7 541 454.8 541C438 541 421 541 404.2 541C387.3 541 370.7 541 353.8 541C337 541 320 541 303.2 541C286.3 541 269.7 541 252.8 541C236 541 219 541 202.2 541C185.3 541 168.7 541 151.8 541C135 541 118 541 101.2 541C84.3 541 67.7 541 50.8 541C34 541 17 541 8.5 541L0 541Z" fill="#c80096"></path><path d="M0 513L8.5 513.5C17 514 34 515 50.8 512.7C67.7 510.3 84.3 504.7 101.2 501.2C118 497.7 135 496.3 151.8 499C168.7 501.7 185.3 508.3 202.2 511.5C219 514.7 236 514.3 252.8 510C269.7 505.7 286.3 497.3 303.2 497.8C320 498.3 337 507.7 353.8 512C370.7 516.3 387.3 515.7 404.2 516.3C421 517 438 519 454.8 514.8C471.7 510.7 488.3 500.3 505.2 497.8C522 495.3 539 500.7 555.8 504.2C572.7 507.7 589.3 509.3 606.2 507.3C623 505.3 640 499.7 656.8 501.2C673.7 502.7 690.3 511.3 707.2 514.8C724 518.3 741 516.7 757.8 511.5C774.7 506.3 791.3 497.7 808.2 495C825 492.3 842 495.7 858.8 501.2C875.7 506.7 892.3 514.3 909.2 513.2C926 512 943 502 951.5 497L960 492L960 541L951.5 541C943 541 926 541 909.2 541C892.3 541 875.7 541 858.8 541C842 541 825 541 808.2 541C791.3 541 774.7 541 757.8 541C741 541 724 541 707.2 541C690.3 541 673.7 541 656.8 541C640 541 623 541 606.2 541C589.3 541 572.7 541 555.8 541C539 541 522 541 505.2 541C488.3 541 471.7 541 454.8 541C438 541 421 541 404.2 541C387.3 541 370.7 541 353.8 541C337 541 320 541 303.2 541C286.3 541 269.7 541 252.8 541C236 541 219 541 202.2 541C185.3 541 168.7 541 151.8 541C135 541 118 541 101.2 541C84.3 541 67.7 541 50.8 541C34 541 17 541 8.5 541L0 541Z" fill="#d90690"></path><path d="M0 526L8.5 526.2C17 526.3 34 526.7 50.8 526C67.7 525.3 84.3 523.7 101.2 523.2C118 522.7 135 523.3 151.8 522.2C168.7 521 185.3 518 202.2 515.3C219 512.7 236 510.3 252.8 511.5C269.7 512.7 286.3 517.3 303.2 517.8C320 518.3 337 514.7 353.8 512.7C370.7 510.7 387.3 510.3 404.2 509.7C421 509 438 508 454.8 510.7C471.7 513.3 488.3 519.7 505.2 518.3C522 517 539 508 555.8 505.8C572.7 503.7 589.3 508.3 606.2 508.8C623 509.3 640 505.7 656.8 505.7C673.7 505.7 690.3 509.3 707.2 509.7C724 510 741 507 757.8 506.2C774.7 505.3 791.3 506.7 808.2 507.2C825 507.7 842 507.3 858.8 510.2C875.7 513 892.3 519 909.2 518.2C926 517.3 943 509.7 951.5 505.8L960 502L960 541L951.5 541C943 541 926 541 909.2 541C892.3 541 875.7 541 858.8 541C842 541 825 541 808.2 541C791.3 541 774.7 541 757.8 541C741 541 724 541 707.2 541C690.3 541 673.7 541 656.8 541C640 541 623 541 606.2 541C589.3 541 572.7 541 555.8 541C539 541 522 541 505.2 541C488.3 541 471.7 541 454.8 541C438 541 421 541 404.2 541C387.3 541 370.7 541 353.8 541C337 541 320 541 303.2 541C286.3 541 269.7 541 252.8 541C236 541 219 541 202.2 541C185.3 541 168.7 541 151.8 541C135 541 118 541 101.2 541C84.3 541 67.7 541 50.8 541C34 541 17 541 8.5 541L0 541Z" fill="#e9168b"></path><path d="M0 520L8.5 522C17 524 34 528 50.8 528.7C67.7 529.3 84.3 526.7 101.2 523.3C118 520 135 516 151.8 517.7C168.7 519.3 185.3 526.7 202.2 526.8C219 527 236 520 252.8 517.8C269.7 515.7 286.3 518.3 303.2 519.8C320 521.3 337 521.7 353.8 523.7C370.7 525.7 387.3 529.3 404.2 528.8C421 528.3 438 523.7 454.8 521.2C471.7 518.7 488.3 518.3 505.2 519.5C522 520.7 539 523.3 555.8 522.8C572.7 522.3 589.3 518.7 606.2 520C623 521.3 640 527.7 656.8 529.8C673.7 532 690.3 530 707.2 527.7C724 525.3 741 522.7 757.8 522C774.7 521.3 791.3 522.7 808.2 522.5C825 522.3 842 520.7 858.8 519.2C875.7 517.7 892.3 516.3 909.2 517.5C926 518.7 943 522.3 951.5 524.2L960 526L960 541L951.5 541C943 541 926 541 909.2 541C892.3 541 875.7 541 858.8 541C842 541 825 541 808.2 541C791.3 541 774.7 541 757.8 541C741 541 724 541 707.2 541C690.3 541 673.7 541 656.8 541C640 541 623 541 606.2 541C589.3 541 572.7 541 555.8 541C539 541 522 541 505.2 541C488.3 541 471.7 541 454.8 541C438 541 421 541 404.2 541C387.3 541 370.7 541 353.8 541C337 541 320 541 303.2 541C286.3 541 269.7 541 252.8 541C236 541 219 541 202.2 541C185.3 541 168.7 541 151.8 541C135 541 118 541 101.2 541C84.3 541 67.7 541 50.8 541C34 541 17 541 8.5 541L0 541Z" fill="#f72585"></path></svg>