<svg id="visual" viewBox="0 0 5000 540" width="5000" height="540" xmlns="http://www.w3.org/2000/svg" xmlns:xlink="http://www.w3.org/1999/xlink" version="1.1"><path d="M0 459L36.2 463C72.3 467 144.7 475 217.2 470C289.7 465 362.3 447 434.8 449.3C507.3 451.7 579.7 474.3 652.2 470.5C724.7 466.7 797.3 436.3 869.8 432.8C942.3 429.3 1014.7 452.7 1087 462.7C1159.3 472.7 1231.7 469.3 1304.2 468.3C1376.7 467.3 1449.3 468.7 1521.8 471.3C1594.3 474 1666.7 478 1739.2 469.7C1811.7 461.3 1884.3 440.7 1956.8 430C2029.3 419.3 2101.7 418.7 2174 420C2246.3 421.3 2318.7 424.7 2391.2 420.3C2463.7 416 2536.3 404 2608.8 407.7C2681.3 411.3 2753.7 430.7 2826 436C2898.3 441.3 2970.7 432.7 3043.2 437.3C3115.7 442 3188.3 460 3260.8 471C3333.3 482 3405.7 486 3478.2 477.5C3550.7 469 3623.3 448 3695.8 450C3768.3 452 3840.7 477 3913 479.7C3985.3 482.3 4057.7 462.7 4130.2 461.5C4202.7 460.3 4275.3 477.7 4347.8 469.5C4420.3 461.3 4492.7 427.7 4565.2 429C4637.7 430.3 4710.3 466.7 4782.8 481.2C4855.3 495.7 4927.7 488.3 4963.8 484.7L5000 481L5000 541L4963.8 541C4927.7 541 4855.3 541 4782.8 541C4710.3 541 4637.7 541 4565.2 541C4492.7 541 4420.3 541 4347.8 541C4275.3 541 4202.7 541 4130.2 541C4057.7 541 3985.3 541 3913 541C3840.7 541 3768.3 541 3695.8 541C3623.3 541 3550.7 541 3478.2 541C3405.7 541 3333.3 541 3260.8 541C3188.3 541 3115.7 541 3043.2 541C2970.7 541 2898.3 541 2826 541C2753.7 541 2681.3 541 2608.8 541C2536.3 541 2463.7 541 2391.2 541C2318.7 541 2246.3 541 2174 541C2101.7 541 2029.3 541 1956.8 541C1884.3 541 1811.7 541 1739.2 541C1666.7 541 1594.3 541 1521.8 541C1449.3 541 1376.7 541 1304.2 541C1231.7 541 1159.3 541 1087 541C1014.7 541 942.3 541 869.8 541C797.3 541 724.7 541 652.2 541C579.7 541 507.3 541 434.8 541C362.3 541 289.7 541 217.2 541C144.7 541 72.3 541 36.2 541L0 541Z" fill="#390099"></path><path d="M0 500L36.2 498.3C72.3 496.7 144.7 493.3 217.2 482.7C289.7 472 362.3 454 434.8 439.8C507.3 425.7 579.7 415.3 652.2 426.3C724.7 437.3 797.3 469.7 869.8 472.5C942.3 475.3 1014.7 448.7 1087 446.7C1159.3 444.7 1231.7 467.3 1304.2 481.3C1376.7 495.3 1449.3 500.7 1521.8 490.7C1594.3 480.7 1666.7 455.3 1739.2 451C1811.7 446.7 1884.3 463.3 1956.8 475.7C2029.3 488 2101.7 496 2174 486.7C2246.3 477.3 2318.7 450.7 2391.2 447.3C2463.7 444 2536.3 464 2608.8 477.5C2681.3 491 2753.7 498 2826 499.5C2898.3 501 2970.7 497 3043.2 486.2C3115.7 475.3 3188.3 457.7 3260.8 451.2C3333.3 444.7 3405.7 449.3 3478.2 445.3C3550.7 441.3 3623.3 428.7 3695.8 426.5C3768.3 424.3 3840.7 432.7 3913 448C3985.3 463.3 4057.7 485.7 4130.2 483.5C4202.7 481.3 4275.3 454.7 4347.8 453C4420.3 451.3 4492.7 474.7 4565.2 482.5C4637.7 490.3 4710.3 482.7 4782.8 471.7C4855.3 460.7 4927.7 446.3 4963.8 439.2L5000 432L5000 541L4963.8 541C4927.7 541 4855.3 541 4782.8 541C4710.3 541 4637.7 541 4565.2 541C4492.7 541 4420.3 541 4347.8 541C4275.3 541 4202.7 541 4130.2 541C4057.7 541 3985.3 541 3913 541C3840.7 541 3768.3 541 3695.8 541C3623.3 541 3550.7 541 3478.2 541C3405.7 541 3333.3 541 3260.8 541C3188.3 541 3115.7 541 3043.2 541C2970.7 541 2898.3 541 2826 541C2753.7 541 2681.3 541 2608.8 541C2536.3 541 2463.7 541 2391.2 541C2318.7 541 2246.3 541 2174 541C2101.7 541 2029.3 541 1956.8 541C1884.3 541 1811.7 541 1739.2 541C1666.7 541 1594.3 541 1521.8 541C1449.3 541 1376.7 541 1304.2 541C1231.7 541 1159.3 541 1087 541C1014.7 541 942.3 541 869.8 541C797.3 541 724.7 541 652.2 541C579.7 541 507.3 541 434.8 541C362.3 541 289.7 541 217.2 541C144.7 541 72.3 541 36.2 541L0 541Z" fill="#770091"></path><path d="M0 425L36.2 435.7C72.3 446.3 144.7 467.7 217.2 482.8C289.7 498 362.3 507 434.8 500.2C507.3 493.3 579.7 470.7 652.2 460.7C724.7 450.7 797.3 453.3 869.8 461.3C942.3 469.3 1014.7 482.7 1087 483.3C1159.3 484 1231.7 472 1304.2 470.7C1376.7 469.3 1449.3 478.7 1521.8 477.2C1594.3 475.7 1666.7 463.3 1739.2 457.2C1811.7 451 1884.3 451 1956.8 457.2C2029.3 463.3 2101.7 475.7 2174 476.8C2246.3 478 2318.7 468 2391.2 470.3C2463.7 472.7 2536.3 487.3 2608.8 485.5C2681.3 483.7 2753.7 465.3 2826 460.2C2898.3 455 2970.7 463 3043.2 465.5C3115.7 468 3188.3 465 3260.8 470C3333.3 475 3405.7 488 3478.2 486.5C3550.7 485 3623.3 469 3695.8 461.3C3768.3 453.7 3840.7 454.3 3913 463.2C3985.3 472 4057.7 489 4130.2 487.5C4202.7 486 4275.3 466 4347.8 464.2C4420.3 462.3 4492.7 478.7 4565.2 480.8C4637.7 483 4710.3 471 4782.8 459.5C4855.3 448 4927.7 437 4963.8 431.5L5000 426L5000 541L4963.8 541C4927.7 541 4855.3 541 4782.8 541C4710.3 541 4637.7 541 4565.2 541C4492.7 541 4420.3 541 4347.8 541C4275.3 541 4202.7 541 4130.2 541C4057.7 541 3985.3 541 3913 541C3840.7 541 3768.3 541 3695.8 541C3623.3 541 3550.7 541 3478.2 541C3405.7 541 3333.3 541 3260.8 541C3188.3 541 3115.7 541 3043.2 541C2970.7 541 2898.3 541 2826 541C2753.7 541 2681.3 541 2608.8 541C2536.3 541 2463.7 541 2391.2 541C2318.7 541 2246.3 541 2174 541C2101.7 541 2029.3 541 1956.8 541C1884.3 541 1811.7 541 1739.2 541C1666.7 541 1594.3 541 1521.8 541C1449.3 541 1376.7 541 1304.2 541C1231.7 541 1159.3 541 1087 541C1014.7 541 942.3 541 869.8 541C797.3 541 724.7 541 652.2 541C579.7 541 507.3 541 434.8 541C362.3 541 289.7 541 217.2 541C144.7 541 72.3 541 36.2 541L0 541Z" fill="#9e0088"></path><path d="M0 502L36.2 499.2C72.3 496.3 144.7 490.7 217.2 484.7C289.7 478.7 362.3 472.3 434.8 466.3C507.3 460.3 579.7 454.7 652.2 451.8C724.7 449 797.3 449 869.8 459C942.3 469 1014.7 489 1087 496.7C1159.3 504.3 1231.7 499.7 1304.2 498.7C1376.7 497.7 1449.3 500.3 1521.8 495.8C1594.3 491.3 1666.7 479.7 1739.2 474C1811.7 468.3 1884.3 468.7 1956.8 472C2029.3 475.3 2101.7 481.7 2174 477.8C2246.3 474 2318.7 460 2391.2 454C2463.7 448 2536.3 450 2608.8 457.7C2681.3 465.3 2753.7 478.7 2826 478.3C2898.3 478 2970.7 464 3043.2 459.3C3115.7 454.7 3188.3 459.3 3260.8 468.5C3333.3 477.7 3405.7 491.3 3478.2 490.8C3550.7 490.3 3623.3 475.7 3695.8 475.5C3768.3 475.3 3840.7 489.7 3913 491.5C3985.3 493.3 4057.7 482.7 4130.2 477.7C4202.7 472.7 4275.3 473.3 4347.8 471.2C4420.3 469 4492.7 464 4565.2 471.2C4637.7 478.3 4710.3 497.7 4782.8 506.2C4855.3 514.7 4927.7 512.3 4963.8 511.2L5000 510L5000 541L4963.8 541C4927.7 541 4855.3 541 4782.8 541C4710.3 541 4637.7 541 4565.2 541C4492.7 541 4420.3 541 4347.8 541C4275.3 541 4202.7 541 4130.2 541C4057.7 541 3985.3 541 3913 541C3840.7 541 3768.3 541 3695.8 541C3623.3 541 3550.7 541 3478.2 541C3405.7 541 3333.3 541 3260.8 541C3188.3 541 3115.7 541 3043.2 541C2970.7 541 2898.3 541 2826 541C2753.7 541 2681.3 541 2608.8 541C2536.3 541 2463.7 541 2391.2 541C2318.7 541 2246.3 541 2174 541C2101.7 541 2029.3 541 1956.8 541C1884.3 541 1811.7 541 1739.2 541C1666.7 541 1594.3 541 1521.8 541C1449.3 541 1376.7 541 1304.2 541C1231.7 541 1159.3 541 1087 541C1014.7 541 942.3 541 869.8 541C797.3 541 724.7 541 652.2 541C579.7 541 507.3 541 434.8 541C362.3 541 289.7 541 217.2 541C144.7 541 72.3 541 36.2 541L0 541Z" fill="#bd007f"></path><path d="M0 498L36.2 494.2C72.3 490.3 144.7 482.7 217.2 481.7C289.7 480.7 362.3 486.3 434.8 487.5C507.3 488.7 579.7 485.3 652.2 480.7C724.7 476 797.3 470 869.8 472.7C942.3 475.3 1014.7 486.7 1087 491.8C1159.3 497 1231.7 496 1304.2 499.7C1376.7 503.3 1449.3 511.7 1521.8 508.7C1594.3 505.7 1666.7 491.3 1739.2 486C1811.7 480.7 1884.3 484.3 1956.8 483.2C2029.3 482 2101.7 476 2174 474.3C2246.3 472.7 2318.7 475.3 2391.2 480C2463.7 484.7 2536.3 491.3 2608.8 492C2681.3 492.7 2753.7 487.3 2826 490C2898.3 492.7 2970.7 503.3 3043.2 507.5C3115.7 511.7 3188.3 509.3 3260.8 504.8C3333.3 500.3 3405.7 493.7 3478.2 494C3550.7 494.3 3623.3 501.7 3695.8 500.8C3768.3 500 3840.7 491 3913 490.8C3985.3 490.7 4057.7 499.3 4130.2 497.5C4202.7 495.7 4275.3 483.3 4347.8 477.3C4420.3 471.3 4492.7 471.7 4565.2 475.3C4637.7 479 4710.3 486 4782.8 490.7C4855.3 495.3 4927.7 497.7 4963.8 498.8L5000 500L5000 541L4963.8 541C4927.7 541 4855.3 541 4782.8 541C4710.3 541 4637.7 541 4565.2 541C4492.7 541 4420.3 541 4347.8 541C4275.3 541 4202.7 541 4130.2 541C4057.7 541 3985.3 541 3913 541C3840.7 541 3768.3 541 3695.8 541C3623.3 541 3550.7 541 3478.2 541C3405.7 541 3333.3 541 3260.8 541C3188.3 541 3115.7 541 3043.2 541C2970.7 541 2898.3 541 2826 541C2753.7 541 2681.3 541 2608.8 541C2536.3 541 2463.7 541 2391.2 541C2318.7 541 2246.3 541 2174 541C2101.7 541 2029.3 541 1956.8 541C1884.3 541 1811.7 541 1739.2 541C1666.7 541 1594.3 541 1521.8 541C1449.3 541 1376.7 541 1304.2 541C1231.7 541 1159.3 541 1087 541C1014.7 541 942.3 541 869.8 541C797.3 541 724.7 541 652.2 541C579.7 541 507.3 541 434.8 541C362.3 541 289.7 541 217.2 541C144.7 541 72.3 541 36.2 541L0 541Z" fill="#d70074"></path><path d="M0 486L36.2 489.7C72.3 493.3 144.7 500.7 217.2 500.2C289.7 499.7 362.3 491.3 434.8 489.3C507.3 487.3 579.7 491.7 652.2 494.2C724.7 496.7 797.3 497.3 869.8 495C942.3 492.7 1014.7 487.3 1087 492.2C1159.3 497 1231.7 512 1304.2 518.5C1376.7 525 1449.3 523 1521.8 523.3C1594.3 523.7 1666.7 526.3 1739.2 524.8C1811.7 523.3 1884.3 517.7 1956.8 514C2029.3 510.3 2101.7 508.7 2174 504.2C2246.3 499.7 2318.7 492.3 2391.2 495.8C2463.7 499.3 2536.3 513.7 2608.8 516.3C2681.3 519 2753.7 510 2826 509.2C2898.3 508.3 2970.7 515.7 3043.2 515.2C3115.7 514.7 3188.3 506.3 3260.8 502.3C3333.3 498.3 3405.7 498.7 3478.2 498.2C3550.7 497.7 3623.3 496.3 3695.8 493.5C3768.3 490.7 3840.7 486.3 3913 492C3985.3 497.7 4057.7 513.3 4130.2 519.7C4202.7 526 4275.3 523 4347.8 523C4420.3 523 4492.7 526 4565.2 527.7C4637.7 529.3 4710.3 529.7 4782.8 523.5C4855.3 517.3 4927.7 504.7 4963.8 498.3L5000 492L5000 541L4963.8 541C4927.7 541 4855.3 541 4782.8 541C4710.3 541 4637.7 541 4565.2 541C4492.7 541 4420.3 541 4347.8 541C4275.3 541 4202.7 541 4130.2 541C4057.7 541 3985.3 541 3913 541C3840.7 541 3768.3 541 3695.8 541C3623.3 541 3550.7 541 3478.2 541C3405.7 541 3333.3 541 3260.8 541C3188.3 541 3115.7 541 3043.2 541C2970.7 541 2898.3 541 2826 541C2753.7 541 2681.3 541 2608.8 541C2536.3 541 2463.7 541 2391.2 541C2318.7 541 2246.3 541 2174 541C2101.7 541 2029.3 541 1956.8 541C1884.3 541 1811.7 541 1739.2 541C1666.7 541 1594.3 541 1521.8 541C1449.3 541 1376.7 541 1304.2 541C1231.7 541 1159.3 541 1087 541C1014.7 541 942.3 541 869.8 541C797.3 541 724.7 541 652.2 541C579.7 541 507.3 541 434.8 541C362.3 541 289.7 541 217.2 541C144.7 541 72.3 541 36.2 541L0 541Z" fill="#ed0066"></path><path d="M0 527L36.2 526.2C72.3 525.3 144.7 523.7 217.2 521.3C289.7 519 362.3 516 434.8 513.5C507.3 511 579.7 509 652.2 508.3C724.7 507.7 797.3 508.3 869.8 512.2C942.3 516 1014.7 523 1087 526.2C1159.3 529.3 1231.7 528.7 1304.2 526.5C1376.7 524.3 1449.3 520.7 1521.8 518.7C1594.3 516.7 1666.7 516.3 1739.2 518C1811.7 519.7 1884.3 523.3 1956.8 521.8C2029.3 520.3 2101.7 513.7 2174 512.8C2246.3 512 2318.7 517 2391.2 518.3C2463.7 519.7 2536.3 517.3 2608.8 515.5C2681.3 513.7 2753.7 512.3 2826 516C2898.3 519.7 2970.7 528.3 3043.2 530.8C3115.7 533.3 3188.3 529.7 3260.8 528.7C3333.3 527.7 3405.7 529.3 3478.2 527.8C3550.7 526.3 3623.3 521.7 3695.8 521.2C3768.3 520.7 3840.7 524.3 3913 525.5C3985.3 526.7 4057.7 525.3 4130.2 521.8C4202.7 518.3 4275.3 512.7 4347.8 510.5C4420.3 508.3 4492.7 509.7 4565.2 513.2C4637.7 516.7 4710.3 522.3 4782.8 522.5C4855.3 522.7 4927.7 517.3 4963.8 514.7L5000 512L5000 541L4963.8 541C4927.7 541 4855.3 541 4782.8 541C4710.3 541 4637.7 541 4565.2 541C4492.7 541 4420.3 541 4347.8 541C4275.3 541 4202.7 541 4130.2 541C4057.7 541 3985.3 541 3913 541C3840.7 541 3768.3 541 3695.8 541C3623.3 541 3550.7 541 3478.2 541C3405.7 541 3333.3 541 3260.8 541C3188.3 541 3115.7 541 3043.2 541C2970.7 541 2898.3 541 2826 541C2753.7 541 2681.3 541 2608.8 541C2536.3 541 2463.7 541 2391.2 541C2318.7 541 2246.3 541 2174 541C2101.7 541 2029.3 541 1956.8 541C1884.3 541 1811.7 541 1739.2 541C1666.7 541 1594.3 541 1521.8 541C1449.3 541 1376.7 541 1304.2 541C1231.7 541 1159.3 541 1087 541C1014.7 541 942.3 541 869.8 541C797.3 541 724.7 541 652.2 541C579.7 541 507.3 541 434.8 541C362.3 541 289.7 541 217.2 541C144.7 541 72.3 541 36.2 541L0 541Z" fill="#ff0054"></path></svg>